<svg id="Layer_1" data-name="Layer 1" xmlns="http://www.w3.org/2000/svg" viewBox="0 0 98.58 36.17"><defs><style>.cls-1{fill:#b2b8a3;}</style></defs><title>logo</title><path class="cls-1" d="M26,19.21q.93,0,.93,1.2a2,2,0,0,1-.29,1.1,1.29,1.29,0,0,1-.88.56c-1.65.3-3.28.65-4.87,1l-.08.65c-.51,3.57-1.52,6.22-3,7.93a7.25,7.25,0,0,1-5.67,2.57,5.09,5.09,0,0,1-3.49-1.1,3.59,3.59,0,0,1-1.24-2.82,6.61,6.61,0,0,1,2.56-5.08,22.58,22.58,0,0,1,7.75-3.94l.54-3.84q.12-.64.27-1.74a11.84,11.84,0,0,1-3.26,5,6.71,6.71,0,0,1-4.43,1.66A4.43,4.43,0,0,1,7.19,21,5.44,5.44,0,0,1,6,17.31a12.24,12.24,0,0,1,.22-2.22c.14-.81.37-1.9.68-3.28s.48-2.24.61-3a10.78,10.78,0,0,0,.21-2c0-.87-.34-1.31-1-1.31a3.33,3.33,0,0,0-1.86.78A10.69,10.69,0,0,0,2.54,8.69a1.08,1.08,0,0,1-.85.51A.83.83,0,0,1,1,8.84,1.33,1.33,0,0,1,.74,8,3.4,3.4,0,0,1,1.5,6.1c1.85-2.54,4-3.8,6.5-3.8a3.38,3.38,0,0,1,2.6,1,4.23,4.23,0,0,1,.94,3,17.05,17.05,0,0,1-.26,2.89c-.17,1-.43,2.25-.78,3.77-.21.91-.38,1.64-.49,2.19a8.12,8.12,0,0,0-.16,1.37,3.14,3.14,0,0,0,.49,2,2.11,2.11,0,0,0,1.71.6,4.32,4.32,0,0,0,3-1.62,14.66,14.66,0,0,0,2.77-4.91,33.83,33.83,0,0,0,1.78-8,2.9,2.9,0,0,1,.63-1.7,1.87,1.87,0,0,1,1.41-.5,1.68,1.68,0,0,1,1.91,1.9,3.54,3.54,0,0,1,0,.52Q23,8.77,22.47,12c-.18,1.31-.38,2.65-.58,4s-.42,2.77-.62,4.18c1.33-.36,2.72-.68,4.19-1A1.5,1.5,0,0,1,26,19.21Zm-8.73,4.95q-6.58,2.28-6.58,5.55a1.7,1.7,0,0,0,1.82,1.77q3.78,0,4.73-7.13Z" transform="translate(-0.74 -1.62)"/><path class="cls-1" d="M25.69,24.24a6.11,6.11,0,0,1-.8-3.32,20.14,20.14,0,0,1,.31-3.14A28.89,28.89,0,0,1,26,14.21a2.32,2.32,0,0,1,.65-1.2,2.07,2.07,0,0,1,1.3-.33c.93,0,1.39.31,1.39.93a20.78,20.78,0,0,1-.52,3.15,24.06,24.06,0,0,0-.65,4.06,2.8,2.8,0,0,0,.22,1.25.75.75,0,0,0,.73.43,2,2,0,0,0,1.23-.68,23,23,0,0,0,2-2.15,1,1,0,0,1,.74-.38.64.64,0,0,1,.56.33,1.77,1.77,0,0,1,.2.9,2.47,2.47,0,0,1-.52,1.68c-1.79,2.2-3.47,3.29-5,3.29A2.82,2.82,0,0,1,25.69,24.24Zm1.08-13.88a1.92,1.92,0,0,1-.57-1.48,2,2,0,0,1,.74-1.59,2.76,2.76,0,0,1,1.87-.64,2.55,2.55,0,0,1,1.63.49,1.66,1.66,0,0,1,.62,1.38,2.22,2.22,0,0,1-.7,1.73,2.68,2.68,0,0,1-1.88.64A2.45,2.45,0,0,1,26.77,10.36Z" transform="translate(-0.74 -1.62)"/><path class="cls-1" d="M32.26,24.27a4.91,4.91,0,0,1-1-3.21,8.87,8.87,0,0,1,1-4.12,8.53,8.53,0,0,1,2.68-3.13,6,6,0,0,1,3.55-1.18,1.07,1.07,0,0,1,.8.23,1.92,1.92,0,0,1,.34.83,6.61,6.61,0,0,1,1.2-.11c.88,0,1.33.32,1.33.95a20.88,20.88,0,0,1-.41,2.72,26,26,0,0,0-.62,4.35,1,1,0,0,0,.2.66.66.66,0,0,0,.53.24,2.08,2.08,0,0,0,1.25-.66,24.74,24.74,0,0,0,2-2.17,1,1,0,0,1,.73-.38.63.63,0,0,1,.56.33,1.77,1.77,0,0,1,.2.9,2.52,2.52,0,0,1-.51,1.68,13.74,13.74,0,0,1-2.37,2.34,4,4,0,0,1-2.42.95,2.54,2.54,0,0,1-1.65-.61,3.74,3.74,0,0,1-1.12-1.67A4.16,4.16,0,0,1,35,25.49,3.29,3.29,0,0,1,32.26,24.27ZM37.07,22a4.45,4.45,0,0,0,.79-1.88l1-5a3.27,3.27,0,0,0-2.11.86,5.91,5.91,0,0,0-1.54,2.18,7.41,7.41,0,0,0-.57,2.89A2,2,0,0,0,35,22.34a1.17,1.17,0,0,0,.94.41A1.49,1.49,0,0,0,37.07,22Z" transform="translate(-0.74 -1.62)"/><path class="cls-1" d="M58.8,17.36a1.87,1.87,0,0,1,.19.9c0,.87-.26,1.39-.79,1.55a12.18,12.18,0,0,1-3.58.65,6.8,6.8,0,0,1-2,3.66,5,5,0,0,1-3.45,1.37,4.8,4.8,0,0,1-2.79-.79,5,5,0,0,1-1.75-2.09,6.68,6.68,0,0,1-.6-2.83,8.22,8.22,0,0,1,.79-3.68A6.21,6.21,0,0,1,47,13.57,5.42,5.42,0,0,1,50,12.66a4.22,4.22,0,0,1,3.33,1.42,6.14,6.14,0,0,1,1.48,3.53,17,17,0,0,0,3.05-.55,1.89,1.89,0,0,1,.38,0A.59.59,0,0,1,58.8,17.36ZM50.85,21.9a4,4,0,0,0,.86-2,3.74,3.74,0,0,1-1.3-1.49,4.43,4.43,0,0,1-.45-2,4.28,4.28,0,0,1,.09-.87h-.14a2.13,2.13,0,0,0-1.81,1.05,5.17,5.17,0,0,0-.72,2.95A3.83,3.83,0,0,0,48,21.82a1.68,1.68,0,0,0,1.38.79A2,2,0,0,0,50.85,21.9Z" transform="translate(-0.74 -1.62)"/><path class="cls-1" d="M57.43,24.37a4.88,4.88,0,0,1-.78-2.82,22.69,22.69,0,0,1,.28-3.74,24.17,24.17,0,0,1,.89-3.6A2.26,2.26,0,0,1,58.58,13a2.67,2.67,0,0,1,1.55-.36,1.38,1.38,0,0,1,.83.19.7.7,0,0,1,.24.58,11.31,11.31,0,0,1-.3,1.46c-.19.68-.33,1.28-.44,1.83a25.86,25.86,0,0,0-.54,3.8,1.78,1.78,0,0,0,.13.81.48.48,0,0,0,.44.23c.27,0,.61-.27,1-.82a11.8,11.8,0,0,0,1.3-2.47,33,33,0,0,0,1.35-4.08A2.07,2.07,0,0,1,64.83,13a2.1,2.1,0,0,1,1.34-.36,1.77,1.77,0,0,1,.87.15.6.6,0,0,1,.25.56,27,27,0,0,1-.68,3.73,29.74,29.74,0,0,0-.76,4.29,1.35,1.35,0,0,0,.21.81.69.69,0,0,0,.57.28,2.13,2.13,0,0,0,1.3-.66,24.51,24.51,0,0,0,2-2.17,1,1,0,0,1,.73-.38.64.64,0,0,1,.56.33,1.77,1.77,0,0,1,.2.9,2.47,2.47,0,0,1-.52,1.68,11.86,11.86,0,0,1-2.51,2.37,5.26,5.26,0,0,1-3.06.92,2.09,2.09,0,0,1-1.92-1,5.46,5.46,0,0,1-.61-2.83,6.35,6.35,0,0,1-1.39,2.84,2.7,2.7,0,0,1-2,1A2.33,2.33,0,0,1,57.43,24.37Z" transform="translate(-0.74 -1.62)"/><path class="cls-1" d="M84.3,19.62a1.77,1.77,0,0,1,.2.9A2.47,2.47,0,0,1,84,22.2a11.86,11.86,0,0,1-2.51,2.37,5.26,5.26,0,0,1-3.06.92,3,3,0,0,1-2.34-1,6,6,0,0,1-3.24,1,33.08,33.08,0,0,1-1.6,8.77c-.83,2.35-2.06,3.53-3.67,3.53a2.44,2.44,0,0,1-2.18-1.07,5.23,5.23,0,0,1-.7-2.93,19.36,19.36,0,0,1,1.22-6.22,42.94,42.94,0,0,1,3.78-7.81c0-2.65,0-4.49-.05-5.53A1.4,1.4,0,0,1,70.25,13a2.82,2.82,0,0,1,1.63-.46,1.25,1.25,0,0,1,.83.23,1.32,1.32,0,0,1,.29.91c0,.46,0,.79,0,1a6,6,0,0,1,1.72-1.56,3.56,3.56,0,0,1,1.79-.48A3,3,0,0,1,79,13.85a5,5,0,0,1,1,3.21,8.57,8.57,0,0,1-.47,2.8,8.94,8.94,0,0,1-1.27,2.48,3.47,3.47,0,0,0,1,.16,2.71,2.71,0,0,0,1.71-.65A16.67,16.67,0,0,0,83,19.67a1,1,0,0,1,.73-.38A.63.63,0,0,1,84.3,19.62ZM69,31.92a67.51,67.51,0,0,0,.63-8,39.36,39.36,0,0,0-1.85,5.19,16,16,0,0,0-.68,4.17,3.35,3.35,0,0,0,.2,1.33c.14.31.29.46.48.46C68.27,35.12,68.67,34.06,69,31.92Zm5.78-10.11a6.36,6.36,0,0,0,1.32-2.12A7.46,7.46,0,0,0,76.59,17a2,2,0,0,0-.33-1.24,1.05,1.05,0,0,0-.87-.42c-.65,0-1.44.69-2.37,2.06,0,.8,0,2,0,3.51,0,.84,0,1.48,0,1.93A3.57,3.57,0,0,0,74.78,21.81Z" transform="translate(-0.74 -1.62)"/><path class="cls-1" d="M95,19.62a1.77,1.77,0,0,1,.2.9,2.47,2.47,0,0,1-.52,1.68,11.79,11.79,0,0,1-2.55,2.37,5.6,5.6,0,0,1-3.19.92q-5.54,0-5.54-7.8c0-.8,0-1.61.08-2.42H82.41a1.51,1.51,0,0,1-1.1-.3A1.35,1.35,0,0,1,81,14c0-1,.41-1.53,1.22-1.53h1.55A26.25,26.25,0,0,1,85.21,7a12.25,12.25,0,0,1,2.3-3.95A3.92,3.92,0,0,1,90.4,1.62a2,2,0,0,1,1.8,1,4.62,4.62,0,0,1,.65,2.53,9.51,9.51,0,0,1-3.54,7.34h3a.91.91,0,0,1,.63.19,1.06,1.06,0,0,1,.19.71c0,1.25-1,1.88-3.08,1.88H86.79c0,.9-.06,1.61-.06,2.12a8.39,8.39,0,0,0,.67,4,2.25,2.25,0,0,0,2.1,1.14,3.21,3.21,0,0,0,2.07-.71,15.5,15.5,0,0,0,2.12-2.12,1,1,0,0,1,.74-.38A.64.64,0,0,1,95,19.62ZM88.76,5.25a13.67,13.67,0,0,0-1,2.82,38.14,38.14,0,0,0-.75,4A9.29,9.29,0,0,0,89.46,9a7.49,7.49,0,0,0,.81-3.14c0-1.07-.2-1.6-.6-1.6S89.09,4.57,88.76,5.25Z" transform="translate(-0.74 -1.62)"/><path class="cls-1" d="M92.93,25.14A1.61,1.61,0,0,1,92.61,24a7.39,7.39,0,0,1,0-.76,59.79,59.79,0,0,1,1.44-9A2,2,0,0,1,94.82,13a3.05,3.05,0,0,1,1.62-.34q1.17,0,1.17,1a4,4,0,0,1-.06.51,70.37,70.37,0,0,0-1.46,9.77,1.59,1.59,0,0,1-.52,1.22,2.42,2.42,0,0,1-1.44.35A1.64,1.64,0,0,1,92.93,25.14ZM95,10.36a1.89,1.89,0,0,1-.58-1.48,2,2,0,0,1,.75-1.59,2.76,2.76,0,0,1,1.87-.64,2.55,2.55,0,0,1,1.63.49,1.66,1.66,0,0,1,.62,1.38,2.22,2.22,0,0,1-.7,1.73,2.7,2.7,0,0,1-1.88.64A2.45,2.45,0,0,1,95,10.36Z" transform="translate(-0.74 -1.62)"/></svg>