<svg id="Layer_1" data-name="Layer 1" xmlns="http://www.w3.org/2000/svg" viewBox="0 0 98.58 36.17"><defs><style>.cls-1{fill:#fff;}</style></defs><title>logo_white</title><path class="cls-1" d="M26,48q.93,0,.93,1.2a2,2,0,0,1-.29,1.1,1.26,1.26,0,0,1-.88.56c-1.65.31-3.28.65-4.87,1l-.08.65q-.77,5.37-3,7.93a7.22,7.22,0,0,1-5.67,2.57A5.09,5.09,0,0,1,8.56,62a3.57,3.57,0,0,1-1.24-2.81,6.61,6.61,0,0,1,2.56-5.09,22.58,22.58,0,0,1,7.75-3.94l.54-3.84q.12-.65.27-1.74a11.84,11.84,0,0,1-3.26,5,6.71,6.71,0,0,1-4.43,1.66,4.39,4.39,0,0,1-3.56-1.43A5.44,5.44,0,0,1,6,46.11a12.24,12.24,0,0,1,.22-2.22c.14-.8.37-1.9.68-3.27s.48-2.25.61-3a10.78,10.78,0,0,0,.21-2c0-.87-.34-1.31-1-1.31a3.33,3.33,0,0,0-1.86.78,10.91,10.91,0,0,0-2.27,2.38,1.1,1.1,0,0,1-.85.52A.84.84,0,0,1,1,37.64a1.33,1.33,0,0,1-.29-.83A3.4,3.4,0,0,1,1.5,34.9Q4.28,31.1,8,31.1a3.38,3.38,0,0,1,2.6,1,4.23,4.23,0,0,1,.94,3A17,17,0,0,1,11.28,38c-.17,1-.43,2.25-.78,3.77-.21.91-.38,1.64-.49,2.19a8.12,8.12,0,0,0-.16,1.37,3.14,3.14,0,0,0,.49,2,2.11,2.11,0,0,0,1.71.6,4.32,4.32,0,0,0,3-1.62,14.66,14.66,0,0,0,2.77-4.91,33.71,33.71,0,0,0,1.78-8.05,2.93,2.93,0,0,1,.63-1.7,1.91,1.91,0,0,1,1.41-.5A1.68,1.68,0,0,1,23.56,33a3.54,3.54,0,0,1,0,.52q-.57,4-1.06,7.31c-.18,1.31-.38,2.65-.58,4s-.42,2.77-.62,4.19c1.33-.37,2.72-.69,4.19-1A1.5,1.5,0,0,1,26,48Zm-8.73,5c-4.39,1.53-6.58,3.37-6.58,5.55a1.78,1.78,0,0,0,.48,1.27,1.76,1.76,0,0,0,1.34.5q3.78,0,4.73-7.13Z" transform="translate(-0.74 -30.42)"/><path class="cls-1" d="M25.69,53a6.1,6.1,0,0,1-.8-3.31,19.92,19.92,0,0,1,.31-3.14A29.06,29.06,0,0,1,26,43a2.32,2.32,0,0,1,.65-1.2,2.07,2.07,0,0,1,1.3-.32c.93,0,1.39.3,1.39.92a20.83,20.83,0,0,1-.52,3.16,23.84,23.84,0,0,0-.65,4,2.8,2.8,0,0,0,.22,1.25.75.75,0,0,0,.73.43,2,2,0,0,0,1.23-.68,24,24,0,0,0,2-2.14,1,1,0,0,1,.74-.39.64.64,0,0,1,.56.33,1.77,1.77,0,0,1,.2.9A2.45,2.45,0,0,1,33.29,51c-1.79,2.2-3.47,3.29-5,3.29A2.82,2.82,0,0,1,25.69,53Zm1.08-13.88a1.92,1.92,0,0,1-.57-1.48,2,2,0,0,1,.74-1.59,2.76,2.76,0,0,1,1.87-.64,2.55,2.55,0,0,1,1.63.49,1.67,1.67,0,0,1,.62,1.39,2.2,2.2,0,0,1-.7,1.72,2.68,2.68,0,0,1-1.88.64A2.45,2.45,0,0,1,26.77,39.16Z" transform="translate(-0.74 -30.42)"/><path class="cls-1" d="M32.26,53.07a4.88,4.88,0,0,1-1-3.21,8.87,8.87,0,0,1,1-4.12,8.61,8.61,0,0,1,2.68-3.13,6.09,6.09,0,0,1,3.55-1.18,1.07,1.07,0,0,1,.8.23,1.92,1.92,0,0,1,.34.83,6.61,6.61,0,0,1,1.2-.11c.88,0,1.33.32,1.33,1a21.13,21.13,0,0,1-.41,2.72,25.74,25.74,0,0,0-.62,4.35,1,1,0,0,0,.2.65.66.66,0,0,0,.53.24,2.08,2.08,0,0,0,1.25-.66,25.83,25.83,0,0,0,2-2.16.93.93,0,0,1,.73-.39.63.63,0,0,1,.56.33,1.77,1.77,0,0,1,.2.9A2.5,2.5,0,0,1,46.08,51a13.74,13.74,0,0,1-2.37,2.34,4,4,0,0,1-2.42.95,2.54,2.54,0,0,1-1.65-.61A3.69,3.69,0,0,1,38.52,52,4.16,4.16,0,0,1,35,54.29,3.29,3.29,0,0,1,32.26,53.07Zm4.81-2.23A4.45,4.45,0,0,0,37.86,49l1-5a3.27,3.27,0,0,0-2.11.86A5.87,5.87,0,0,0,35.22,47a7.33,7.33,0,0,0-.57,2.88A2,2,0,0,0,35,51.14a1.17,1.17,0,0,0,.94.41A1.49,1.49,0,0,0,37.07,50.84Z" transform="translate(-0.74 -30.42)"/><path class="cls-1" d="M58.8,46.16a1.87,1.87,0,0,1,.19.9c0,.87-.26,1.39-.79,1.55a12.18,12.18,0,0,1-3.58.65,6.77,6.77,0,0,1-2,3.66,5,5,0,0,1-3.45,1.37,4.87,4.87,0,0,1-2.79-.78,5.06,5.06,0,0,1-1.75-2.1,6.68,6.68,0,0,1-.6-2.83,8.25,8.25,0,0,1,.79-3.68A6.21,6.21,0,0,1,47,42.37,5.42,5.42,0,0,1,50,41.46a4.23,4.23,0,0,1,3.33,1.43,6.08,6.08,0,0,1,1.48,3.52,17,17,0,0,0,3.05-.55,1.89,1.89,0,0,1,.38,0A.59.59,0,0,1,58.8,46.16Zm-7.95,4.55a4.09,4.09,0,0,0,.86-2,3.7,3.7,0,0,1-1.3-1.5,4.43,4.43,0,0,1-.45-2,4.28,4.28,0,0,1,.09-.87h-.14a2.13,2.13,0,0,0-1.81,1,5.17,5.17,0,0,0-.72,3A3.83,3.83,0,0,0,48,50.62a1.68,1.68,0,0,0,1.38.79A2,2,0,0,0,50.85,50.71Z" transform="translate(-0.74 -30.42)"/><path class="cls-1" d="M57.43,53.17a4.86,4.86,0,0,1-.78-2.82,22.77,22.77,0,0,1,.28-3.74,24.17,24.17,0,0,1,.89-3.6,2.34,2.34,0,0,1,.76-1.17,2.67,2.67,0,0,1,1.55-.35,1.31,1.31,0,0,1,.83.19.67.67,0,0,1,.24.57,11.65,11.65,0,0,1-.3,1.47c-.19.67-.33,1.27-.44,1.82a25.76,25.76,0,0,0-.54,3.81,1.73,1.73,0,0,0,.13.8.48.48,0,0,0,.44.23c.27,0,.61-.27,1-.82a11.8,11.8,0,0,0,1.3-2.47A33,33,0,0,0,64.16,43a2.14,2.14,0,0,1,.67-1.17,2.1,2.1,0,0,1,1.34-.35,1.77,1.77,0,0,1,.87.15.58.58,0,0,1,.25.55,26.7,26.7,0,0,1-.68,3.73,29.54,29.54,0,0,0-.76,4.3,1.33,1.33,0,0,0,.21.8.69.69,0,0,0,.57.28,2.13,2.13,0,0,0,1.3-.66,25.58,25.58,0,0,0,2-2.16.93.93,0,0,1,.73-.39.64.64,0,0,1,.56.33,1.77,1.77,0,0,1,.2.9A2.45,2.45,0,0,1,70.9,51a11.61,11.61,0,0,1-2.51,2.37,5.26,5.26,0,0,1-3.06.92,2.09,2.09,0,0,1-1.92-1,5.43,5.43,0,0,1-.61-2.83,6.35,6.35,0,0,1-1.39,2.84,2.7,2.7,0,0,1-2,1A2.33,2.33,0,0,1,57.43,53.17Z" transform="translate(-0.74 -30.42)"/><path class="cls-1" d="M84.3,48.42a1.77,1.77,0,0,1,.2.9A2.45,2.45,0,0,1,84,51a11.61,11.61,0,0,1-2.51,2.37,5.26,5.26,0,0,1-3.06.92,3,3,0,0,1-2.34-1,6,6,0,0,1-3.24,1,33.24,33.24,0,0,1-1.6,8.78c-.83,2.34-2.06,3.52-3.67,3.52a2.45,2.45,0,0,1-2.18-1.06,5.28,5.28,0,0,1-.7-2.94,19.26,19.26,0,0,1,1.22-6.21,42.69,42.69,0,0,1,3.78-7.82c0-2.65,0-4.49-.05-5.52a1.38,1.38,0,0,1,.62-1.25,2.75,2.75,0,0,1,1.63-.47,1.25,1.25,0,0,1,.83.23,1.33,1.33,0,0,1,.29.92c0,.45,0,.78,0,1a6.35,6.35,0,0,1,1.72-1.56,3.56,3.56,0,0,1,1.79-.48A3,3,0,0,1,79,42.66a5,5,0,0,1,1,3.2,8.63,8.63,0,0,1-.47,2.81,9,9,0,0,1-1.27,2.47,3.47,3.47,0,0,0,1,.16,2.66,2.66,0,0,0,1.71-.65A16.45,16.45,0,0,0,83,48.48a.93.93,0,0,1,.73-.39A.63.63,0,0,1,84.3,48.42ZM69,60.73a67.7,67.7,0,0,0,.63-8A39.47,39.47,0,0,0,67.78,58a15.9,15.9,0,0,0-.68,4.16,3.35,3.35,0,0,0,.2,1.33c.14.31.29.46.48.46C68.27,63.92,68.67,62.86,69,60.73Zm5.78-10.12a6.36,6.36,0,0,0,1.32-2.12,7.42,7.42,0,0,0,.49-2.65,2,2,0,0,0-.33-1.24,1.05,1.05,0,0,0-.87-.42q-1,0-2.37,2.07c0,.79,0,2,0,3.5,0,.84,0,1.48,0,1.93A3.57,3.57,0,0,0,74.78,50.61Z" transform="translate(-0.74 -30.42)"/><path class="cls-1" d="M95,48.42a1.77,1.77,0,0,1,.2.9A2.45,2.45,0,0,1,94.67,51a11.54,11.54,0,0,1-2.55,2.37,5.6,5.6,0,0,1-3.19.92q-5.54,0-5.54-7.8c0-.8,0-1.6.08-2.42H82.41a1.51,1.51,0,0,1-1.1-.3,1.35,1.35,0,0,1-.29-1c0-1,.41-1.52,1.22-1.52h1.55a26.18,26.18,0,0,1,1.42-5.47,12.2,12.2,0,0,1,2.3-3.94,3.9,3.9,0,0,1,2.89-1.47,2,2,0,0,1,1.8,1A4.62,4.62,0,0,1,92.85,34a9.54,9.54,0,0,1-3.54,7.35h3a.86.86,0,0,1,.63.19,1,1,0,0,1,.19.7c0,1.25-1,1.88-3.08,1.88H86.79c0,.91-.06,1.61-.06,2.12a8.36,8.36,0,0,0,.67,4,2.25,2.25,0,0,0,2.1,1.14,3.26,3.26,0,0,0,2.07-.7,16.1,16.1,0,0,0,2.12-2.12,1,1,0,0,1,.74-.39A.64.64,0,0,1,95,48.42ZM88.76,34.05a13.58,13.58,0,0,0-1,2.83,37.45,37.45,0,0,0-.75,4,9.19,9.19,0,0,0,2.4-3.12,7.46,7.46,0,0,0,.81-3.14c0-1.07-.2-1.6-.6-1.6S89.09,33.37,88.76,34.05Z" transform="translate(-0.74 -30.42)"/><path class="cls-1" d="M92.93,53.94a1.58,1.58,0,0,1-.32-1.11,7.08,7.08,0,0,1,0-.76A59.73,59.73,0,0,1,94.1,43a2,2,0,0,1,.72-1.18,3,3,0,0,1,1.62-.34c.78,0,1.17.31,1.17.95a4,4,0,0,1-.06.51,70.37,70.37,0,0,0-1.46,9.77,1.57,1.57,0,0,1-.52,1.22,2.35,2.35,0,0,1-1.44.35A1.59,1.59,0,0,1,92.93,53.94ZM95,39.16a1.89,1.89,0,0,1-.58-1.48,2,2,0,0,1,.75-1.59,2.76,2.76,0,0,1,1.87-.64,2.55,2.55,0,0,1,1.63.49,1.67,1.67,0,0,1,.62,1.39,2.2,2.2,0,0,1-.7,1.72,2.7,2.7,0,0,1-1.88.64A2.45,2.45,0,0,1,95,39.16Z" transform="translate(-0.74 -30.42)"/></svg>